<mxfile host="app.diagrams.net" agent="Mozilla/5.0 (Windows NT 10.0; Win64; x64) AppleWebKit/537.36 (KHTML, like Gecko) Chrome/139.0.0.0 Safari/537.36" version="28.1.0">
  <diagram name="Halaman-1" id="GXPgCjNBNIKRu538lSS5">
    <mxGraphModel dx="830" dy="475" grid="1" gridSize="10" guides="1" tooltips="1" connect="1" arrows="1" fold="1" page="1" pageScale="1" pageWidth="850" pageHeight="1100" background="light-dark(#000000, #121212)" math="0" shadow="0">
      <root>
        <mxCell id="0" />
        <mxCell id="1" parent="0" />
        <mxCell id="WXnxzAlT2yBMP7x9jPzv-1" value="" style="rounded=0;whiteSpace=wrap;html=1;strokeColor=none;" vertex="1" parent="1">
          <mxGeometry x="130" y="40" width="540" height="270" as="geometry" />
        </mxCell>
        <mxCell id="WXnxzAlT2yBMP7x9jPzv-2" value="" style="rounded=0;whiteSpace=wrap;html=1;" vertex="1" parent="1">
          <mxGeometry x="315" y="90" width="170" height="180" as="geometry" />
        </mxCell>
        <mxCell id="WXnxzAlT2yBMP7x9jPzv-4" value="" style="endArrow=none;html=1;rounded=0;entryX=0.998;entryY=0.141;entryDx=0;entryDy=0;entryPerimeter=0;exitX=-0.008;exitY=0.21;exitDx=0;exitDy=0;exitPerimeter=0;" edge="1" parent="1" target="WXnxzAlT2yBMP7x9jPzv-2">
          <mxGeometry width="50" height="50" relative="1" as="geometry">
            <mxPoint x="315" y="115.07000000000001" as="sourcePoint" />
            <mxPoint x="486.87" y="114.71" as="targetPoint" />
          </mxGeometry>
        </mxCell>
        <mxCell id="WXnxzAlT2yBMP7x9jPzv-6" value="logo" style="text;html=1;align=center;verticalAlign=middle;whiteSpace=wrap;rounded=0;" vertex="1" parent="1">
          <mxGeometry x="370" y="90" width="60" height="30" as="geometry" />
        </mxCell>
        <mxCell id="WXnxzAlT2yBMP7x9jPzv-10" value="" style="endArrow=none;html=1;rounded=0;entryX=0.998;entryY=0.141;entryDx=0;entryDy=0;entryPerimeter=0;exitX=-0.008;exitY=0.21;exitDx=0;exitDy=0;exitPerimeter=0;" edge="1" parent="1">
          <mxGeometry width="50" height="50" relative="1" as="geometry">
            <mxPoint x="315" y="240.07" as="sourcePoint" />
            <mxPoint x="485" y="240" as="targetPoint" />
          </mxGeometry>
        </mxCell>
        <mxCell id="WXnxzAlT2yBMP7x9jPzv-11" value="" style="rounded=1;whiteSpace=wrap;html=1;" vertex="1" parent="1">
          <mxGeometry x="330" y="140" width="140" height="30" as="geometry" />
        </mxCell>
        <mxCell id="WXnxzAlT2yBMP7x9jPzv-12" value="" style="rounded=1;whiteSpace=wrap;html=1;" vertex="1" parent="1">
          <mxGeometry x="330" y="190" width="140" height="30" as="geometry" />
        </mxCell>
        <mxCell id="WXnxzAlT2yBMP7x9jPzv-13" value="username/email" style="text;html=1;align=center;verticalAlign=middle;whiteSpace=wrap;rounded=0;" vertex="1" parent="1">
          <mxGeometry x="370" y="140" width="60" height="30" as="geometry" />
        </mxCell>
        <mxCell id="WXnxzAlT2yBMP7x9jPzv-14" value="password" style="text;html=1;align=center;verticalAlign=middle;whiteSpace=wrap;rounded=0;" vertex="1" parent="1">
          <mxGeometry x="370" y="190" width="60" height="30" as="geometry" />
        </mxCell>
        <mxCell id="WXnxzAlT2yBMP7x9jPzv-15" value="login" style="text;html=1;align=center;verticalAlign=middle;whiteSpace=wrap;rounded=0;" vertex="1" parent="1">
          <mxGeometry x="370" y="240" width="60" height="30" as="geometry" />
        </mxCell>
        <mxCell id="WXnxzAlT2yBMP7x9jPzv-16" value="" style="rounded=0;whiteSpace=wrap;html=1;strokeColor=none;" vertex="1" parent="1">
          <mxGeometry x="770" y="40" width="540" height="300" as="geometry" />
        </mxCell>
        <mxCell id="WXnxzAlT2yBMP7x9jPzv-17" value="Dashboard Pengunjung" style="text;html=1;align=center;verticalAlign=middle;whiteSpace=wrap;rounded=0;" vertex="1" parent="1">
          <mxGeometry x="760" y="69.1" width="180" height="60" as="geometry" />
        </mxCell>
        <mxCell id="WXnxzAlT2yBMP7x9jPzv-18" value="Form tamu" style="rounded=0;whiteSpace=wrap;html=1;" vertex="1" parent="1">
          <mxGeometry x="995" y="80" width="270" height="20" as="geometry" />
        </mxCell>
        <mxCell id="WXnxzAlT2yBMP7x9jPzv-19" value="Menu: Lihat status kunjungan" style="rounded=0;whiteSpace=wrap;html=1;" vertex="1" parent="1">
          <mxGeometry x="775" y="159.4" width="150" height="30" as="geometry" />
        </mxCell>
        <mxCell id="WXnxzAlT2yBMP7x9jPzv-20" value="Menu: Lihat QR Code" style="rounded=0;whiteSpace=wrap;html=1;" vertex="1" parent="1">
          <mxGeometry x="775" y="199.4" width="150" height="30" as="geometry" />
        </mxCell>
        <mxCell id="WXnxzAlT2yBMP7x9jPzv-21" value="" style="endArrow=none;html=1;rounded=0;entryX=0.389;entryY=-0.004;entryDx=0;entryDy=0;entryPerimeter=0;exitX=0.315;exitY=1.001;exitDx=0;exitDy=0;exitPerimeter=0;" edge="1" parent="1" source="WXnxzAlT2yBMP7x9jPzv-16">
          <mxGeometry width="50" height="50" relative="1" as="geometry">
            <mxPoint x="940" y="330" as="sourcePoint" />
            <mxPoint x="937.8399999999999" y="40.000000000000014" as="targetPoint" />
          </mxGeometry>
        </mxCell>
        <mxCell id="WXnxzAlT2yBMP7x9jPzv-22" value="Menu: Form pendaftaran tamu" style="rounded=0;whiteSpace=wrap;html=1;" vertex="1" parent="1">
          <mxGeometry x="775" y="119.4" width="150" height="30" as="geometry" />
        </mxCell>
        <mxCell id="WXnxzAlT2yBMP7x9jPzv-23" value="Nama lengkap" style="rounded=0;whiteSpace=wrap;html=1;" vertex="1" parent="1">
          <mxGeometry x="975" y="120" width="305" height="20" as="geometry" />
        </mxCell>
        <mxCell id="WXnxzAlT2yBMP7x9jPzv-24" value="&lt;font&gt;Instansi/Perusahaan/Asal sekolah&lt;/font&gt;" style="rounded=0;whiteSpace=wrap;html=1;" vertex="1" parent="1">
          <mxGeometry x="975" y="155" width="305" height="20" as="geometry" />
        </mxCell>
        <mxCell id="WXnxzAlT2yBMP7x9jPzv-25" value="Tujuan Kunjungan" style="rounded=0;whiteSpace=wrap;html=1;" vertex="1" parent="1">
          <mxGeometry x="975" y="220" width="305" height="20" as="geometry" />
        </mxCell>
        <mxCell id="WXnxzAlT2yBMP7x9jPzv-26" value="Tanggal Tujuan" style="rounded=0;whiteSpace=wrap;html=1;" vertex="1" parent="1">
          <mxGeometry x="975" y="250" width="305" height="20" as="geometry" />
        </mxCell>
        <mxCell id="WXnxzAlT2yBMP7x9jPzv-33" value="Reset" style="rounded=0;whiteSpace=wrap;html=1;" vertex="1" parent="1">
          <mxGeometry x="1040" y="290" width="80" height="20" as="geometry" />
        </mxCell>
        <mxCell id="WXnxzAlT2yBMP7x9jPzv-35" value="Submit" style="rounded=0;whiteSpace=wrap;html=1;" vertex="1" parent="1">
          <mxGeometry x="1140" y="290" width="80" height="20" as="geometry" />
        </mxCell>
        <mxCell id="WXnxzAlT2yBMP7x9jPzv-54" value="" style="rounded=0;whiteSpace=wrap;html=1;strokeColor=none;" vertex="1" parent="1">
          <mxGeometry x="775" y="400" width="540" height="300" as="geometry" />
        </mxCell>
        <mxCell id="WXnxzAlT2yBMP7x9jPzv-55" value="Dashboard Petugas/Resepsionis" style="text;html=1;align=center;verticalAlign=middle;whiteSpace=wrap;rounded=0;" vertex="1" parent="1">
          <mxGeometry x="790" y="434.55" width="145" height="40" as="geometry" />
        </mxCell>
        <mxCell id="WXnxzAlT2yBMP7x9jPzv-56" value="Data tamu" style="rounded=0;whiteSpace=wrap;html=1;" vertex="1" parent="1">
          <mxGeometry x="995" y="437.13" width="270" height="20" as="geometry" />
        </mxCell>
        <mxCell id="WXnxzAlT2yBMP7x9jPzv-57" value="Menu: Data Tamu" style="rounded=0;whiteSpace=wrap;html=1;" vertex="1" parent="1">
          <mxGeometry x="787.5" y="517.13" width="150" height="30" as="geometry" />
        </mxCell>
        <mxCell id="WXnxzAlT2yBMP7x9jPzv-59" value="" style="endArrow=none;html=1;rounded=0;entryX=0.389;entryY=-0.004;entryDx=0;entryDy=0;entryPerimeter=0;exitX=0.315;exitY=1.001;exitDx=0;exitDy=0;exitPerimeter=0;" edge="1" parent="1" source="WXnxzAlT2yBMP7x9jPzv-54">
          <mxGeometry width="50" height="50" relative="1" as="geometry">
            <mxPoint x="945" y="690" as="sourcePoint" />
            <mxPoint x="942.8399999999999" y="400" as="targetPoint" />
          </mxGeometry>
        </mxCell>
        <mxCell id="WXnxzAlT2yBMP7x9jPzv-60" value="Dashboard" style="rounded=0;whiteSpace=wrap;html=1;" vertex="1" parent="1">
          <mxGeometry x="787.5" y="477.13" width="150" height="30" as="geometry" />
        </mxCell>
        <mxCell id="WXnxzAlT2yBMP7x9jPzv-73" value="chek-in/ chek-out" style="rounded=0;whiteSpace=wrap;html=1;" vertex="1" parent="1">
          <mxGeometry x="787.5" y="557.13" width="150" height="30" as="geometry" />
        </mxCell>
        <mxCell id="WXnxzAlT2yBMP7x9jPzv-74" value="Tabel Data Tamu" style="rounded=0;whiteSpace=wrap;html=1;" vertex="1" parent="1">
          <mxGeometry x="970" y="470" width="320" height="210" as="geometry" />
        </mxCell>
        <mxCell id="WXnxzAlT2yBMP7x9jPzv-75" value="No Hp" style="rounded=0;whiteSpace=wrap;html=1;" vertex="1" parent="1">
          <mxGeometry x="975" y="185" width="305" height="20" as="geometry" />
        </mxCell>
        <mxCell id="WXnxzAlT2yBMP7x9jPzv-76" value="" style="rounded=0;whiteSpace=wrap;html=1;strokeColor=none;" vertex="1" parent="1">
          <mxGeometry x="130" y="397.13" width="540" height="300" as="geometry" />
        </mxCell>
        <mxCell id="WXnxzAlT2yBMP7x9jPzv-77" value="Dashboard Petugas/Resepsionis" style="text;html=1;align=center;verticalAlign=middle;whiteSpace=wrap;rounded=0;" vertex="1" parent="1">
          <mxGeometry x="137.5" y="444.25" width="145" height="40" as="geometry" />
        </mxCell>
        <mxCell id="WXnxzAlT2yBMP7x9jPzv-78" value="Dashboard" style="rounded=0;whiteSpace=wrap;html=1;" vertex="1" parent="1">
          <mxGeometry x="365" y="437.13" width="270" height="20" as="geometry" />
        </mxCell>
        <mxCell id="WXnxzAlT2yBMP7x9jPzv-79" value="Menu: Data Tamu" style="rounded=0;whiteSpace=wrap;html=1;" vertex="1" parent="1">
          <mxGeometry x="135" y="528.57" width="150" height="30" as="geometry" />
        </mxCell>
        <mxCell id="WXnxzAlT2yBMP7x9jPzv-80" value="" style="endArrow=none;html=1;rounded=0;entryX=0.389;entryY=-0.004;entryDx=0;entryDy=0;entryPerimeter=0;exitX=0.315;exitY=1.001;exitDx=0;exitDy=0;exitPerimeter=0;" edge="1" parent="1" source="WXnxzAlT2yBMP7x9jPzv-76">
          <mxGeometry width="50" height="50" relative="1" as="geometry">
            <mxPoint x="300" y="687.13" as="sourcePoint" />
            <mxPoint x="297.8399999999999" y="397.13" as="targetPoint" />
          </mxGeometry>
        </mxCell>
        <mxCell id="WXnxzAlT2yBMP7x9jPzv-81" value="Dashboard" style="rounded=0;whiteSpace=wrap;html=1;" vertex="1" parent="1">
          <mxGeometry x="135" y="488.57" width="150" height="30" as="geometry" />
        </mxCell>
        <mxCell id="WXnxzAlT2yBMP7x9jPzv-82" value="chek-in/ chek-out" style="rounded=0;whiteSpace=wrap;html=1;" vertex="1" parent="1">
          <mxGeometry x="135" y="568.57" width="150" height="30" as="geometry" />
        </mxCell>
        <mxCell id="WXnxzAlT2yBMP7x9jPzv-83" value="Pengunjung hari ini" style="rounded=0;whiteSpace=wrap;html=1;" vertex="1" parent="1">
          <mxGeometry x="330" y="477.13" width="95" height="40.3" as="geometry" />
        </mxCell>
        <mxCell id="WXnxzAlT2yBMP7x9jPzv-84" value="Sedang Berkunjung" style="rounded=0;whiteSpace=wrap;html=1;" vertex="1" parent="1">
          <mxGeometry x="435" y="477.13" width="100" height="40" as="geometry" />
        </mxCell>
        <mxCell id="WXnxzAlT2yBMP7x9jPzv-85" value="Menunggu approval" style="rounded=0;whiteSpace=wrap;html=1;" vertex="1" parent="1">
          <mxGeometry x="545" y="477.13" width="100" height="40" as="geometry" />
        </mxCell>
        <mxCell id="WXnxzAlT2yBMP7x9jPzv-86" value="" style="rounded=0;whiteSpace=wrap;html=1;strokeColor=none;" vertex="1" parent="1">
          <mxGeometry x="1410" y="39.4" width="540" height="300" as="geometry" />
        </mxCell>
        <mxCell id="WXnxzAlT2yBMP7x9jPzv-87" value="Dashboard Pengunjung" style="text;html=1;align=center;verticalAlign=middle;whiteSpace=wrap;rounded=0;" vertex="1" parent="1">
          <mxGeometry x="1400" y="49.4" width="180" height="60" as="geometry" />
        </mxCell>
        <mxCell id="WXnxzAlT2yBMP7x9jPzv-88" value="Lihat status Kunjungan" style="rounded=0;whiteSpace=wrap;html=1;" vertex="1" parent="1">
          <mxGeometry x="1635" y="79.10000000000001" width="270" height="20" as="geometry" />
        </mxCell>
        <mxCell id="WXnxzAlT2yBMP7x9jPzv-89" value="Menu: Lihat status kunjungan" style="rounded=0;whiteSpace=wrap;html=1;" vertex="1" parent="1">
          <mxGeometry x="1415" y="139.4" width="150" height="30" as="geometry" />
        </mxCell>
        <mxCell id="WXnxzAlT2yBMP7x9jPzv-90" value="Menu: Lihat QR Code" style="rounded=0;whiteSpace=wrap;html=1;" vertex="1" parent="1">
          <mxGeometry x="1415" y="179.4" width="150" height="30" as="geometry" />
        </mxCell>
        <mxCell id="WXnxzAlT2yBMP7x9jPzv-91" value="" style="endArrow=none;html=1;rounded=0;entryX=0.389;entryY=-0.004;entryDx=0;entryDy=0;entryPerimeter=0;exitX=0.315;exitY=1.001;exitDx=0;exitDy=0;exitPerimeter=0;" edge="1" parent="1" source="WXnxzAlT2yBMP7x9jPzv-86">
          <mxGeometry width="50" height="50" relative="1" as="geometry">
            <mxPoint x="1580" y="329.4" as="sourcePoint" />
            <mxPoint x="1577.84" y="39.4" as="targetPoint" />
          </mxGeometry>
        </mxCell>
        <mxCell id="WXnxzAlT2yBMP7x9jPzv-92" value="Menu: Form pendaftaran tamu" style="rounded=0;whiteSpace=wrap;html=1;" vertex="1" parent="1">
          <mxGeometry x="1415" y="99.4" width="150" height="30" as="geometry" />
        </mxCell>
        <mxCell id="WXnxzAlT2yBMP7x9jPzv-96" value="Informasi / Status Kunjungan" style="rounded=0;whiteSpace=wrap;html=1;" vertex="1" parent="1">
          <mxGeometry x="1617.5" y="119.4" width="305" height="170" as="geometry" />
        </mxCell>
        <mxCell id="WXnxzAlT2yBMP7x9jPzv-105" value="" style="rounded=0;whiteSpace=wrap;html=1;strokeColor=none;" vertex="1" parent="1">
          <mxGeometry x="2010" y="39.1" width="540" height="300" as="geometry" />
        </mxCell>
        <mxCell id="WXnxzAlT2yBMP7x9jPzv-106" value="Dashboard Pengunjung" style="text;html=1;align=center;verticalAlign=middle;whiteSpace=wrap;rounded=0;" vertex="1" parent="1">
          <mxGeometry x="2000" y="49.1" width="180" height="60" as="geometry" />
        </mxCell>
        <mxCell id="WXnxzAlT2yBMP7x9jPzv-107" value="Lihat QR Code" style="rounded=0;whiteSpace=wrap;html=1;" vertex="1" parent="1">
          <mxGeometry x="2235" y="70.9" width="270" height="20" as="geometry" />
        </mxCell>
        <mxCell id="WXnxzAlT2yBMP7x9jPzv-108" value="Menu: Lihat status kunjungan" style="rounded=0;whiteSpace=wrap;html=1;" vertex="1" parent="1">
          <mxGeometry x="2015" y="139.1" width="150" height="30" as="geometry" />
        </mxCell>
        <mxCell id="WXnxzAlT2yBMP7x9jPzv-109" value="Menu: Lihat QR Code" style="rounded=0;whiteSpace=wrap;html=1;" vertex="1" parent="1">
          <mxGeometry x="2015" y="179.1" width="150" height="30" as="geometry" />
        </mxCell>
        <mxCell id="WXnxzAlT2yBMP7x9jPzv-110" value="" style="endArrow=none;html=1;rounded=0;entryX=0.389;entryY=-0.004;entryDx=0;entryDy=0;entryPerimeter=0;exitX=0.315;exitY=1.001;exitDx=0;exitDy=0;exitPerimeter=0;" edge="1" parent="1" source="WXnxzAlT2yBMP7x9jPzv-105">
          <mxGeometry width="50" height="50" relative="1" as="geometry">
            <mxPoint x="2180" y="329.09999999999997" as="sourcePoint" />
            <mxPoint x="2177.84" y="39.1" as="targetPoint" />
          </mxGeometry>
        </mxCell>
        <mxCell id="WXnxzAlT2yBMP7x9jPzv-111" value="Menu: Form pendaftaran tamu" style="rounded=0;whiteSpace=wrap;html=1;" vertex="1" parent="1">
          <mxGeometry x="2015" y="99.10000000000001" width="150" height="30" as="geometry" />
        </mxCell>
        <mxCell id="WXnxzAlT2yBMP7x9jPzv-112" value="QR Code" style="rounded=0;whiteSpace=wrap;html=1;" vertex="1" parent="1">
          <mxGeometry x="2308.75" y="109.1" width="122.5" height="110.9" as="geometry" />
        </mxCell>
        <mxCell id="WXnxzAlT2yBMP7x9jPzv-113" value="Data dan Informasi Peraturan Tamu" style="rounded=0;whiteSpace=wrap;html=1;" vertex="1" parent="1">
          <mxGeometry x="2215" y="230" width="310" height="80" as="geometry" />
        </mxCell>
        <mxCell id="WXnxzAlT2yBMP7x9jPzv-114" value="Menu: Pengaturan User" style="rounded=0;whiteSpace=wrap;html=1;" vertex="1" parent="1">
          <mxGeometry x="135" y="608.87" width="150" height="30" as="geometry" />
        </mxCell>
        <mxCell id="WXnxzAlT2yBMP7x9jPzv-115" value="Menu: Pengaturan User" style="rounded=0;whiteSpace=wrap;html=1;" vertex="1" parent="1">
          <mxGeometry x="787.5" y="597.13" width="150" height="30" as="geometry" />
        </mxCell>
        <mxCell id="WXnxzAlT2yBMP7x9jPzv-116" value="" style="rounded=0;whiteSpace=wrap;html=1;strokeColor=none;" vertex="1" parent="1">
          <mxGeometry x="1410" y="404.55" width="540" height="300" as="geometry" />
        </mxCell>
        <mxCell id="WXnxzAlT2yBMP7x9jPzv-117" value="Dashboard Petugas/Resepsionis" style="text;html=1;align=center;verticalAlign=middle;whiteSpace=wrap;rounded=0;" vertex="1" parent="1">
          <mxGeometry x="1417.5" y="440" width="145" height="40" as="geometry" />
        </mxCell>
        <mxCell id="WXnxzAlT2yBMP7x9jPzv-118" value="Lihat Laporan" style="rounded=0;whiteSpace=wrap;html=1;" vertex="1" parent="1">
          <mxGeometry x="1635" y="444.55" width="270" height="20" as="geometry" />
        </mxCell>
        <mxCell id="WXnxzAlT2yBMP7x9jPzv-119" value="Menu: Data Tamu" style="rounded=0;whiteSpace=wrap;html=1;" vertex="1" parent="1">
          <mxGeometry x="1417.5" y="520" width="150" height="30" as="geometry" />
        </mxCell>
        <mxCell id="WXnxzAlT2yBMP7x9jPzv-120" value="" style="endArrow=none;html=1;rounded=0;entryX=0.389;entryY=-0.004;entryDx=0;entryDy=0;entryPerimeter=0;exitX=0.315;exitY=1.001;exitDx=0;exitDy=0;exitPerimeter=0;" edge="1" parent="1" source="WXnxzAlT2yBMP7x9jPzv-116">
          <mxGeometry width="50" height="50" relative="1" as="geometry">
            <mxPoint x="1580" y="694.55" as="sourcePoint" />
            <mxPoint x="1577.84" y="404.55" as="targetPoint" />
          </mxGeometry>
        </mxCell>
        <mxCell id="WXnxzAlT2yBMP7x9jPzv-121" value="Dashboard" style="rounded=0;whiteSpace=wrap;html=1;" vertex="1" parent="1">
          <mxGeometry x="1417.5" y="480" width="150" height="30" as="geometry" />
        </mxCell>
        <mxCell id="WXnxzAlT2yBMP7x9jPzv-122" value="chek-in/ chek-out" style="rounded=0;whiteSpace=wrap;html=1;" vertex="1" parent="1">
          <mxGeometry x="1417.5" y="560" width="150" height="30" as="geometry" />
        </mxCell>
        <mxCell id="WXnxzAlT2yBMP7x9jPzv-123" value="Data Laporan" style="rounded=0;whiteSpace=wrap;html=1;" vertex="1" parent="1">
          <mxGeometry x="1605" y="474.55" width="325" height="145.45" as="geometry" />
        </mxCell>
        <mxCell id="WXnxzAlT2yBMP7x9jPzv-124" value="Menu: Pengaturan User" style="rounded=0;whiteSpace=wrap;html=1;" vertex="1" parent="1">
          <mxGeometry x="1417.5" y="600" width="150" height="30" as="geometry" />
        </mxCell>
        <mxCell id="WXnxzAlT2yBMP7x9jPzv-125" value="Terima" style="rounded=0;whiteSpace=wrap;html=1;" vertex="1" parent="1">
          <mxGeometry x="1820" y="640" width="60" height="30" as="geometry" />
        </mxCell>
        <mxCell id="WXnxzAlT2yBMP7x9jPzv-126" value="Proses" style="rounded=0;whiteSpace=wrap;html=1;" vertex="1" parent="1">
          <mxGeometry x="1737.5" y="640" width="60" height="30" as="geometry" />
        </mxCell>
        <mxCell id="WXnxzAlT2yBMP7x9jPzv-127" value="tolak" style="rounded=0;whiteSpace=wrap;html=1;" vertex="1" parent="1">
          <mxGeometry x="1650" y="640" width="60" height="30" as="geometry" />
        </mxCell>
        <mxCell id="WXnxzAlT2yBMP7x9jPzv-128" value="" style="rounded=0;whiteSpace=wrap;html=1;strokeColor=none;" vertex="1" parent="1">
          <mxGeometry x="2010" y="404.25" width="540" height="300" as="geometry" />
        </mxCell>
        <mxCell id="WXnxzAlT2yBMP7x9jPzv-129" value="Dashboard Petugas/Resepsionis" style="text;html=1;align=center;verticalAlign=middle;whiteSpace=wrap;rounded=0;" vertex="1" parent="1">
          <mxGeometry x="2015" y="437.13" width="145" height="40" as="geometry" />
        </mxCell>
        <mxCell id="WXnxzAlT2yBMP7x9jPzv-130" value="Chek-in/ Cek-Out" style="rounded=0;whiteSpace=wrap;html=1;" vertex="1" parent="1">
          <mxGeometry x="2240" y="454.25" width="270" height="20" as="geometry" />
        </mxCell>
        <mxCell id="WXnxzAlT2yBMP7x9jPzv-131" value="Menu: Data Tamu" style="rounded=0;whiteSpace=wrap;html=1;" vertex="1" parent="1">
          <mxGeometry x="2017.5" y="527.13" width="150" height="30" as="geometry" />
        </mxCell>
        <mxCell id="WXnxzAlT2yBMP7x9jPzv-132" value="" style="endArrow=none;html=1;rounded=0;entryX=0.389;entryY=-0.004;entryDx=0;entryDy=0;entryPerimeter=0;exitX=0.315;exitY=1.001;exitDx=0;exitDy=0;exitPerimeter=0;" edge="1" parent="1" source="WXnxzAlT2yBMP7x9jPzv-128">
          <mxGeometry width="50" height="50" relative="1" as="geometry">
            <mxPoint x="2180" y="694.25" as="sourcePoint" />
            <mxPoint x="2177.84" y="404.25" as="targetPoint" />
          </mxGeometry>
        </mxCell>
        <mxCell id="WXnxzAlT2yBMP7x9jPzv-133" value="Dashboard" style="rounded=0;whiteSpace=wrap;html=1;" vertex="1" parent="1">
          <mxGeometry x="2017.5" y="487.13" width="150" height="30" as="geometry" />
        </mxCell>
        <mxCell id="WXnxzAlT2yBMP7x9jPzv-134" value="chek-in/ chek-out" style="rounded=0;whiteSpace=wrap;html=1;" vertex="1" parent="1">
          <mxGeometry x="2017.5" y="567.13" width="150" height="30" as="geometry" />
        </mxCell>
        <mxCell id="WXnxzAlT2yBMP7x9jPzv-135" value="Scan QR" style="rounded=0;whiteSpace=wrap;html=1;" vertex="1" parent="1">
          <mxGeometry x="2296.25" y="487.13" width="147.5" height="103.17" as="geometry" />
        </mxCell>
        <mxCell id="WXnxzAlT2yBMP7x9jPzv-138" value="Menu: Pengaturan User" style="rounded=0;whiteSpace=wrap;html=1;" vertex="1" parent="1">
          <mxGeometry x="2017.5" y="607.43" width="150" height="30" as="geometry" />
        </mxCell>
        <mxCell id="WXnxzAlT2yBMP7x9jPzv-139" value="user" style="ellipse;whiteSpace=wrap;html=1;" vertex="1" parent="1">
          <mxGeometry x="1250" y="50" width="40" height="20.9" as="geometry" />
        </mxCell>
        <mxCell id="WXnxzAlT2yBMP7x9jPzv-140" value="user" style="ellipse;whiteSpace=wrap;html=1;" vertex="1" parent="1">
          <mxGeometry x="1265" y="407.13" width="40" height="20.9" as="geometry" />
        </mxCell>
        <mxCell id="WXnxzAlT2yBMP7x9jPzv-141" value="user" style="ellipse;whiteSpace=wrap;html=1;" vertex="1" parent="1">
          <mxGeometry x="1890" y="413.35" width="40" height="20.9" as="geometry" />
        </mxCell>
        <mxCell id="WXnxzAlT2yBMP7x9jPzv-142" value="user" style="ellipse;whiteSpace=wrap;html=1;" vertex="1" parent="1">
          <mxGeometry x="1890" y="50" width="40" height="20.9" as="geometry" />
        </mxCell>
        <mxCell id="WXnxzAlT2yBMP7x9jPzv-143" value="user" style="ellipse;whiteSpace=wrap;html=1;" vertex="1" parent="1">
          <mxGeometry x="2505" y="49.1" width="40" height="20.9" as="geometry" />
        </mxCell>
        <mxCell id="WXnxzAlT2yBMP7x9jPzv-144" value="Informasi" style="rounded=0;whiteSpace=wrap;html=1;" vertex="1" parent="1">
          <mxGeometry x="2265" y="610" width="220" height="20" as="geometry" />
        </mxCell>
        <mxCell id="WXnxzAlT2yBMP7x9jPzv-145" value="user" style="ellipse;whiteSpace=wrap;html=1;" vertex="1" parent="1">
          <mxGeometry x="2500" y="413.35" width="40" height="20.9" as="geometry" />
        </mxCell>
        <mxCell id="WXnxzAlT2yBMP7x9jPzv-146" value="user" style="ellipse;whiteSpace=wrap;html=1;" vertex="1" parent="1">
          <mxGeometry x="610" y="404.55" width="40" height="20.9" as="geometry" />
        </mxCell>
        <mxCell id="WXnxzAlT2yBMP7x9jPzv-147" value="Logo" style="rounded=1;whiteSpace=wrap;html=1;" vertex="1" parent="1">
          <mxGeometry x="140" y="405" width="60" height="20" as="geometry" />
        </mxCell>
        <mxCell id="WXnxzAlT2yBMP7x9jPzv-148" value="Logo" style="rounded=1;whiteSpace=wrap;html=1;" vertex="1" parent="1">
          <mxGeometry x="787.5" y="407.13" width="60" height="20" as="geometry" />
        </mxCell>
        <mxCell id="WXnxzAlT2yBMP7x9jPzv-149" value="Logo" style="rounded=1;whiteSpace=wrap;html=1;" vertex="1" parent="1">
          <mxGeometry x="780" y="49.1" width="60" height="20" as="geometry" />
        </mxCell>
        <mxCell id="WXnxzAlT2yBMP7x9jPzv-150" value="Logo" style="rounded=1;whiteSpace=wrap;html=1;" vertex="1" parent="1">
          <mxGeometry x="1417.5" y="413.35" width="60" height="20" as="geometry" />
        </mxCell>
        <mxCell id="WXnxzAlT2yBMP7x9jPzv-151" value="Logo" style="rounded=1;whiteSpace=wrap;html=1;" vertex="1" parent="1">
          <mxGeometry x="2017.5" y="414.55" width="60" height="20" as="geometry" />
        </mxCell>
      </root>
    </mxGraphModel>
  </diagram>
</mxfile>
